<svg width="44" height="44" viewBox="0 0 44 44" fill="none" xmlns="http://www.w3.org/2000/svg">
<g id="icn/infoportal/folder">
<g id="folder">
<path id="Path" d="M29.5175 12.8883H12.6628C10.2288 12.8883 8.25606 14.8614 8.25606 17.2951V40.1819C6.90777 40.9613 5.2931 41.1343 3.81055 40.6579L3.84928 40.54V13.7696C3.84928 11.336 5.822 9.36285 8.25606 9.36285H25.9921C27.939 9.36285 29.5175 10.9414 29.5175 12.8883Z" fill="#C1FFEE"/>
<path id="Path_2" fill-rule="evenodd" clip-rule="evenodd" d="M7.75639 39.8418C9.06379 39.0844 10.002 37.8222 10.3505 36.3517L15.1541 19.3912C15.6253 17.4038 17.3997 16.0004 19.4421 16H39.3075C40.6261 16 41.8749 16.5904 42.712 17.6091C43.549 18.6273 43.886 19.9674 43.6308 21.2606L39.863 37.029C39.4551 39.0938 37.6446 40.582 35.5398 40.582H5C5.96786 40.5824 6.91893 40.3272 7.75639 39.8418Z" fill="#00D097"/>
<path id="Path_3" fill-rule="evenodd" clip-rule="evenodd" d="M36.1278 16.3401H33.9245C33.9249 14.4341 32.3799 12.8887 30.4739 12.8883H29.5177C29.5177 10.9414 27.9392 9.36284 25.9923 9.36284H8.25626C5.8222 9.36284 3.84948 11.336 3.84948 13.7696V40.5399L3.81075 40.6579C1.53979 39.9237 0.00043035 37.8094 0 35.4227V6.69597C0 4.11258 2.09451 2.01807 4.6779 2.01807H15.5847C16.6481 2.01807 17.6757 2.4028 18.4775 3.10083L20.9133 5.22073C21.7154 5.91919 22.7431 6.30392 23.8065 6.30349H31.4512C34.0342 6.30435 36.1278 8.39843 36.1278 10.9814V16.3401Z" fill="#00D097"/>
<path id="Path_4" d="M33.9245 16.3401H19.9421C17.8996 16.3405 16.1253 17.7439 15.6541 19.7313L10.8505 36.6918C10.5019 38.1623 9.56375 39.4245 8.25635 40.1819V17.2951C8.25635 14.8614 10.2291 12.8883 12.6631 12.8883H30.474C32.38 12.8887 33.925 14.4341 33.9245 16.3401Z" fill="#71E1C3"/>
</g>
</g>
</svg>
