<svg width="24" height="24" viewBox="0 0 24 24" fill="none" xmlns="http://www.w3.org/2000/svg">
<g id="Group">
<path id="Vector" d="M22 19.9999H2V17.9999H3V11.0309C3 6.04294 7.03 1.99994 12 1.99994C16.97 1.99994 21 6.04294 21 11.0309V17.9999H22V19.9999ZM5 17.9999H19V11.0309C19 7.14794 15.866 3.99994 12 3.99994C8.134 3.99994 5 7.14794 5 11.0309V17.9999ZM9.5 20.9999H14.5C14.5 21.663 14.2366 22.2989 13.7678 22.7677C13.2989 23.2365 12.663 23.4999 12 23.4999C11.337 23.4999 10.7011 23.2365 10.2322 22.7677C9.76339 22.2989 9.5 21.663 9.5 20.9999Z" fill="#1573FE"/>
</g>
</svg>
