<svg width="24" height="24" viewBox="0 0 24 24" fill="none" xmlns="http://www.w3.org/2000/svg">
<g id="Group">
<path id="Vector" d="M12 0.999939L21.5 6.49994V17.4999L12 22.9999L2.5 17.4999V6.49994L12 0.999939ZM12 3.31094L4.5 7.65294V16.3469L12 20.6889L19.5 16.3469V7.65294L12 3.31094ZM12 15.9999C10.9391 15.9999 9.92172 15.5785 9.17157 14.8284C8.42143 14.0782 8 13.0608 8 11.9999C8 10.9391 8.42143 9.92166 9.17157 9.17151C9.92172 8.42137 10.9391 7.99994 12 7.99994C13.0609 7.99994 14.0783 8.42137 14.8284 9.17151C15.5786 9.92166 16 10.9391 16 11.9999C16 13.0608 15.5786 14.0782 14.8284 14.8284C14.0783 15.5785 13.0609 15.9999 12 15.9999ZM12 13.9999C12.5304 13.9999 13.0391 13.7892 13.4142 13.4142C13.7893 13.0391 14 12.5304 14 11.9999C14 11.4695 13.7893 10.9608 13.4142 10.5857C13.0391 10.2107 12.5304 9.99994 12 9.99994C11.4696 9.99994 10.9609 10.2107 10.5858 10.5857C10.2107 10.9608 10 11.4695 10 11.9999C10 12.5304 10.2107 13.0391 10.5858 13.4142C10.9609 13.7892 11.4696 13.9999 12 13.9999Z" fill="#049C6B"/>
</g>
</svg>
