<svg width="24" height="24" viewBox="0 0 24 24" fill="none" xmlns="http://www.w3.org/2000/svg">
<g id="Group">
<path id="Vector" d="M3 2.99994H21C21.2652 2.99994 21.5196 3.1053 21.7071 3.29283C21.8946 3.48037 22 3.73472 22 3.99994V19.9999C22 20.2652 21.8946 20.5195 21.7071 20.707C21.5196 20.8946 21.2652 20.9999 21 20.9999H3C2.73478 20.9999 2.48043 20.8946 2.29289 20.707C2.10536 20.5195 2 20.2652 2 19.9999V3.99994C2 3.73472 2.10536 3.48037 2.29289 3.29283C2.48043 3.1053 2.73478 2.99994 3 2.99994ZM4 4.99994V18.9999H20V4.99994H4ZM8.5 13.9999H14C14.1326 13.9999 14.2598 13.9473 14.3536 13.8535C14.4473 13.7597 14.5 13.6325 14.5 13.4999C14.5 13.3673 14.4473 13.2402 14.3536 13.1464C14.2598 13.0526 14.1326 12.9999 14 12.9999H10C9.33696 12.9999 8.70107 12.7365 8.23223 12.2677C7.76339 11.7989 7.5 11.163 7.5 10.4999C7.5 9.8369 7.76339 9.20101 8.23223 8.73217C8.70107 8.26333 9.33696 7.99994 10 7.99994H11V5.99994H13V7.99994H15.5V9.99994H10C9.86739 9.99994 9.74021 10.0526 9.64645 10.1464C9.55268 10.2402 9.5 10.3673 9.5 10.4999C9.5 10.6325 9.55268 10.7597 9.64645 10.8535C9.74021 10.9473 9.86739 10.9999 10 10.9999H14C14.663 10.9999 15.2989 11.2633 15.7678 11.7322C16.2366 12.201 16.5 12.8369 16.5 13.4999C16.5 14.163 16.2366 14.7989 15.7678 15.2677C15.2989 15.7365 14.663 15.9999 14 15.9999H13V17.9999H11V15.9999H8.5V13.9999Z" fill="#DF1525"/>
</g>
</svg>
