<svg width="43" height="43" viewBox="0 0 43 43" fill="none" xmlns="http://www.w3.org/2000/svg">
<g clip-path="url(#clip0_3_103)" filter="url(#filter0_d_3_103)">
<path d="M36.4163 0H6.58368C5.89845 0 5.24128 0.272209 4.75674 0.756743C4.27221 1.24128 4 1.89845 4 2.58368V32.4163C4 33.1016 4.27221 33.7587 4.75674 34.2433C5.24128 34.7278 5.89845 35 6.58368 35H36.4163C37.1016 35 37.7587 34.7278 38.2433 34.2433C38.7278 33.7587 39 33.1016 39 32.4163V2.58368C39 1.89845 38.7278 1.24128 38.2433 0.756743C37.7587 0.272209 37.1016 0 36.4163 0ZM14.4319 29.8156H9.16979V13.1007H14.4319V29.8156ZM11.7972 10.7844C11.2003 10.781 10.6178 10.6009 10.1232 10.2668C9.62851 9.93268 9.24393 9.45952 9.01795 8.90705C8.79196 8.35457 8.73469 7.74753 8.85338 7.16254C8.97206 6.57755 9.26138 6.04082 9.68481 5.6201C10.1082 5.19938 10.6468 4.91351 11.2326 4.79859C11.8183 4.68366 12.425 4.74482 12.976 4.97435C13.527 5.20388 13.9977 5.59149 14.3286 6.08827C14.6595 6.58504 14.8359 7.16872 14.8354 7.76563C14.841 8.16526 14.7662 8.56193 14.6152 8.93201C14.4643 9.30208 14.2404 9.63798 13.9569 9.91968C13.6734 10.2014 13.336 10.4231 12.965 10.5717C12.594 10.7202 12.1968 10.7926 11.7972 10.7844ZM33.8278 29.8302H28.5681V20.6986C28.5681 18.0056 27.4233 17.1743 25.9455 17.1743C24.3851 17.1743 22.8538 18.3507 22.8538 20.7667V29.8302H17.5917V13.1128H22.6521V15.4292H22.7201C23.2281 14.401 25.0073 12.6438 27.7222 12.6438C30.6583 12.6438 33.8302 14.3865 33.8302 19.4906L33.8278 29.8302Z" fill="#0A66C2"/>
</g>
<defs>
<filter id="filter0_d_3_103" x="0" y="0" width="43" height="43" filterUnits="userSpaceOnUse" color-interpolation-filters="sRGB">
<feFlood flood-opacity="0" result="BackgroundImageFix"/>
<feColorMatrix in="SourceAlpha" type="matrix" values="0 0 0 0 0 0 0 0 0 0 0 0 0 0 0 0 0 0 127 0" result="hardAlpha"/>
<feOffset dy="4"/>
<feGaussianBlur stdDeviation="2"/>
<feComposite in2="hardAlpha" operator="out"/>
<feColorMatrix type="matrix" values="0 0 0 0 0 0 0 0 0 0 0 0 0 0 0 0 0 0 0.15 0"/>
<feBlend mode="normal" in2="BackgroundImageFix" result="effect1_dropShadow_3_103"/>
<feBlend mode="normal" in="SourceGraphic" in2="effect1_dropShadow_3_103" result="shape"/>
</filter>
<clipPath id="clip0_3_103">
<rect width="35" height="35" fill="white" transform="translate(4)"/>
</clipPath>
</defs>
</svg>
