<svg width="87" height="87" viewBox="0 0 87 87" fill="none" xmlns="http://www.w3.org/2000/svg">
<g clip-path="url(#clip0_11_37)">
<path d="M43.5 87C61.4861 87 76.0667 83.8647 76.0667 79.997C76.0667 76.1294 61.4861 72.994 43.5 72.994C25.5139 72.994 10.9333 76.1294 10.9333 79.997C10.9333 83.8647 25.5139 87 43.5 87Z" fill="#0FBB6B"/>
<path d="M76.0667 79.997C76.0667 76.1294 61.4862 72.994 43.5 72.994C40.5079 72.994 37.6112 73.0812 34.8589 73.2438L40.9549 82.2119C41.1249 82.4622 41.3235 82.6764 41.5413 82.8569L45.6686 86.9841C62.6433 86.7441 76.0667 83.708 76.0667 79.997Z" fill="url(#paint0_linear_11_37)"/>
<path d="M79.1943 35.6942C79.1943 15.9809 63.2135 0 43.5002 0C23.8726 0 8.00436 15.7015 7.8075 35.3281C7.65892 50.1514 16.5478 62.9145 29.3009 68.4499C31.435 69.3762 33.2605 70.8924 34.5684 72.8165L40.9548 82.2119C42.1761 84.0084 44.8238 84.0084 46.045 82.2119L52.4313 72.8166C53.7351 70.8985 55.5511 69.3806 57.6791 68.4586C70.3378 62.9732 79.1943 50.3689 79.1943 35.6942Z" fill="url(#paint1_linear_11_37)"/>
<path d="M43.5 81.7807C43.2932 81.7807 42.7747 81.7253 42.4258 81.2121L36.0395 71.8165C34.5376 69.607 32.4524 67.8786 30.0092 66.8184C17.4655 61.3737 9.44905 49.0201 9.58621 35.3459C9.67662 26.3259 13.2395 17.8816 19.6185 11.5683C25.9968 5.25568 34.479 1.77875 43.5 1.77875H43.5002C62.2012 1.77875 77.4157 16.9933 77.4157 35.6944C77.4157 49.225 69.391 61.4451 56.972 66.8266C54.5429 67.8793 52.4641 69.6048 50.9605 71.8168L44.5742 81.2123C44.2253 81.7253 43.7068 81.7807 43.5 81.7807Z" fill="url(#paint2_linear_11_37)"/>
<path d="M43.5001 58.1313C55.8918 58.1313 65.9373 48.0859 65.9373 35.6942C65.9373 23.3025 55.8918 13.2571 43.5001 13.2571C31.1084 13.2571 21.063 23.3025 21.063 35.6942C21.063 48.0859 31.1084 58.1313 43.5001 58.1313Z" fill="url(#paint3_linear_11_37)"/>
<path d="M78.0776 44.5812L56.7605 23.2641C53.4443 19.7278 48.7306 17.5177 43.5 17.5177C33.4614 17.5177 25.3235 25.6556 25.3235 35.6942C25.3235 40.9248 27.5336 45.6385 31.0699 48.9547L53.5357 71.4205C54.6901 70.158 56.0983 69.1435 57.6793 68.4586C67.691 64.12 75.3231 55.3281 78.0776 44.5812Z" fill="url(#paint4_linear_11_37)"/>
<path d="M43.5 53.8707C53.5386 53.8707 61.6765 45.7328 61.6765 35.6942C61.6765 25.6556 53.5386 17.5177 43.5 17.5177C33.4614 17.5177 25.3235 25.6556 25.3235 35.6942C25.3235 45.7328 33.4614 53.8707 43.5 53.8707Z" fill="url(#paint5_linear_11_37)"/>
</g>
<defs>
<linearGradient id="paint0_linear_11_37" x1="60.4104" y1="83.2377" x2="49.6393" y2="69.4951" gradientUnits="userSpaceOnUse">
<stop stop-color="#FFDA45" stop-opacity="0"/>
<stop offset="1" stop-color="#B53759"/>
</linearGradient>
<linearGradient id="paint1_linear_11_37" x1="21.9569" y1="14.15" x2="93.1774" y2="85.3704" gradientUnits="userSpaceOnUse">
<stop stop-color="#F58229"/>
<stop offset="1" stop-color="#F54A48"/>
</linearGradient>
<linearGradient id="paint2_linear_11_37" x1="35.8454" y1="28.0596" x2="10.8177" y2="3.03189" gradientUnits="userSpaceOnUse">
<stop stop-color="#FF7044" stop-opacity="0"/>
<stop offset="1" stop-color="#FFA425"/>
</linearGradient>
<linearGradient id="paint3_linear_11_37" x1="57.0295" y1="49.2236" x2="12.2794" y2="4.47349" gradientUnits="userSpaceOnUse">
<stop stop-color="#FF7044"/>
<stop offset="1" stop-color="#F92814"/>
</linearGradient>
<linearGradient id="paint4_linear_11_37" x1="66.8426" y1="59.0368" x2="47.0088" y2="39.203" gradientUnits="userSpaceOnUse">
<stop stop-color="#F54A48" stop-opacity="0"/>
<stop offset="1" stop-color="#F54A48"/>
</linearGradient>
<linearGradient id="paint5_linear_11_37" x1="39.0504" y1="28.9086" x2="49.7913" y2="45.2884" gradientUnits="userSpaceOnUse">
<stop stop-color="#F9F7FC"/>
<stop offset="1" stop-color="#F0DDFC"/>
</linearGradient>
<clipPath id="clip0_11_37">
<rect width="87" height="87" fill="white"/>
</clipPath>
</defs>
</svg>
