<svg xmlns="http://www.w3.org/2000/svg" viewBox="0 0 24 30" x="0px" y="0px"><title>ui 28</title><g data-name="Layer 2"><path d="M5.75928,20.63965a1.99887,1.99887,0,0,0,3.08252,1.335l2.73242-1.82227a1.01132,1.01132,0,0,1,.56055-.16113c3.66113-.02441,6.68261-1.00586,8.083-2.625,2.36621-2.7373,2.36621-9.99512,0-12.73242C18.792,2.98535,15.71973,2,12.001,2H12c-3.71924,0-6.7915.98438-8.21777,2.63379C1.416,7.37109,1.416,14.62891,3.78271,17.36719a6.11255,6.11255,0,0,0,1.64405,1.27344ZM12,5.75A1.25,1.25,0,1,1,10.75,7,1.24991,1.24991,0,0,1,12,5.75ZM10,10.5a.99974.99974,0,0,1,1-1h1a.99974.99974,0,0,1,1,1v4a1,1,0,0,1,0,2H11a1,1,0,0,1,0-2v-3A.99974.99974,0,0,1,10,10.5Z"/></g><text x="0" y="39" fill="#000000" font-size="5px" font-weight="bold" font-family="'Helvetica Neue', Helvetica, Arial-Unicode, Arial, Sans-serif">Created by Nursila</text><text x="0" y="44" fill="#000000" font-size="5px" font-weight="bold" font-family="'Helvetica Neue', Helvetica, Arial-Unicode, Arial, Sans-serif">from the Noun Project</text></svg>