<svg width="24" height="26" viewBox="0 0 24 26" fill="none" xmlns="http://www.w3.org/2000/svg">
<g id="icn/sidebar/calendar/inactive">
<g id="icn/sidebar/calendar/inactive_2">
<path id="calendar" fill-rule="evenodd" clip-rule="evenodd" d="M7 2.64099C7 2.08871 7.44772 1.64099 8 1.64099C8.55228 1.64099 9 2.08871 9 2.64099V3.69227H15V2.64099C15 2.08871 15.4477 1.64099 16 1.64099C16.5523 1.64099 17 2.08871 17 2.64099V3.69227C19.2091 3.69227 21 5.52905 21 7.79484V18.0512C21 20.317 19.2091 22.1538 17 22.1538H7C4.79086 22.1538 3 20.317 3 18.0512V7.79484C3 5.52905 4.79086 3.69227 7 3.69227V2.64099ZM15 5.74356V5.7692C15 6.32148 15.4477 6.7692 16 6.7692C16.5523 6.7692 17 6.32148 17 5.7692V5.74356L17.1493 5.74918C18.1841 5.82749 19 6.71344 19 7.79484V8.82048H5V7.79484L5.00549 7.64175C5.08183 6.58035 5.94564 5.74356 7 5.74356V5.7692C7 6.32148 7.44772 6.7692 8 6.7692C8.55228 6.7692 9 6.32148 9 5.7692V5.74356H15Z" fill="#7D8592"/>
</g>
</g>
</svg>
