<svg width="24" height="26" viewBox="0 0 24 26" fill="none" xmlns="http://www.w3.org/2000/svg">
<g id="icn/sidebar/dashboard/active">
<g id="icn/sidebar/dashboard/active_2">
<path id="dashboard" fill-rule="evenodd" clip-rule="evenodd" d="M6 3.92303C4.34315 3.92303 3 5.26618 3 6.92304V9.12816C3 10.785 4.34315 12.1282 6 12.1282H8C9.65685 12.1282 11 10.785 11 9.12816V6.92304C11 5.26618 9.65685 3.92303 8 3.92303H6ZM16 3.92303C14.3431 3.92303 13 5.26618 13 6.92304V9.12816C13 10.785 14.3431 12.1282 16 12.1282H18C19.6569 12.1282 21 10.785 21 9.12816V6.92304C21 5.26618 19.6569 3.92303 18 3.92303H16ZM3 17.1794C3 15.5226 4.34315 14.1794 6 14.1794H8C9.65685 14.1794 11 15.5226 11 17.1794V19.3846C11 21.0414 9.65685 22.3846 8 22.3846H6C4.34315 22.3846 3 21.0414 3 19.3846V17.1794ZM16 14.1794C14.3431 14.1794 13 15.5226 13 17.1794V19.3846C13 21.0414 14.3431 22.3846 16 22.3846H18C19.6569 22.3846 21 21.0414 21 19.3846V17.1794C21 15.5226 19.6569 14.1794 18 14.1794H16Z" fill="#7D8592"/>
</g>
</g>
</svg>
