<svg width="24" height="25" viewBox="0 0 24 25" fill="none" xmlns="http://www.w3.org/2000/svg">
<g id="icn/sidebar/employees/inactive">
<g id="icn/sidebar/employees/inactive_2">
<path id="users" fill-rule="evenodd" clip-rule="evenodd" d="M14.027 8.62361C14.7517 11.0796 13.8183 13.7314 11.7294 15.1509C13.4634 15.8053 14.9621 16.9833 16.027 18.5288C16.19 18.7656 16.2104 19.0755 16.0801 19.3326C15.9497 19.5897 15.6902 19.7511 15.4071 19.7511L1.75828 19.7516C1.47518 19.7516 1.21565 19.5903 1.08524 19.3332C0.954832 19.0761 0.975266 18.7662 1.13823 18.5293C2.20309 16.9836 3.702 15.8053 5.43628 15.1509C3.34738 13.7314 2.41395 11.0796 3.13865 8.62361C3.86334 6.1676 6.07507 4.48712 8.58283 4.48712C11.0906 4.48712 13.3023 6.1676 14.027 8.62361ZM21.4726 7.8796C22.6404 10.4808 21.7852 13.5646 19.456 15.1508C21.1901 15.8052 22.6888 16.9832 23.7536 18.5287C23.9166 18.7655 23.9371 19.0755 23.8067 19.3325C23.6763 19.5896 23.4169 19.751 23.1338 19.751L18.8951 19.7515C18.6006 19.7516 18.3326 19.5771 18.208 19.304C17.6254 18.0262 16.8052 16.8767 15.7931 15.9196C15.778 15.9053 15.7643 15.8901 15.7506 15.8749C15.4859 15.6277 15.2093 15.3943 14.9219 15.1754C14.6069 14.9357 14.5228 14.4898 14.728 14.1475C16.2618 11.5855 16.1176 8.32661 14.364 5.91676C14.2149 5.71192 14.174 5.44514 14.2545 5.20341C14.335 4.96168 14.5266 4.77597 14.7669 4.70682C17.4607 3.93278 20.3047 5.2784 21.4726 7.8796Z" fill="#7D8592"/>
</g>
</g>
</svg>
