<svg width="24" height="25" viewBox="0 0 24 25" fill="none" xmlns="http://www.w3.org/2000/svg">
<g id="icn/sidebar/vacations/inactive">
<g id="icn/sidebar/vacations/inactive_2">
<path id="vacations" fill-rule="evenodd" clip-rule="evenodd" d="M15.5066 9.01734L15.4969 4.10539C15.4974 2.40494 14.1559 1.0261 12.5007 1.02567C10.8455 1.02525 9.50339 2.40339 9.50297 4.10384L9.49337 9.01734L3.08172 12.3311C2.4173 12.6745 2 13.3599 2 14.1079V15.2091C2 15.8326 2.56442 16.3041 3.17801 16.1931L9.49245 15.0509V17.6418L8.43707 18.9506C8.15033 19.3062 7.99396 19.7492 7.99396 20.206V21.3238C7.99396 21.9615 8.58285 22.4363 9.20606 22.301L12.5007 21.586L15.7718 22.2995C16.3953 22.4355 16.9849 21.9606 16.9849 21.3225V20.1992C16.9849 19.7465 16.8314 19.3073 16.5494 18.9532L15.5075 17.645V15.0509L21.822 16.1931C22.4356 16.3041 23 15.8326 23 15.2091V14.1079C23 13.3599 22.5827 12.6745 21.9183 12.3311L15.5066 9.01734Z" fill="#7D8592"/>
</g>
</g>
</svg>
