<svg width="24" height="26" viewBox="0 0 24 26" fill="none" xmlns="http://www.w3.org/2000/svg">
<g id="icn/sidebar/logout">
<g id="icn/sidebar/logout_2">
<path id="logout" fill-rule="evenodd" clip-rule="evenodd" d="M21 2.66664C21.5128 2.66664 21.9355 3.06258 21.9933 3.57267L22 3.69228V22.1538C22 22.6798 21.614 23.1133 21.1166 23.1726L21 23.1795H15C14.4477 23.1795 14 22.7203 14 22.1538C14 21.6278 14.386 21.1943 14.8834 21.1351L15 21.1282H20V4.71792H15C14.4872 4.71792 14.0645 4.32198 14.0067 3.81189L14 3.69228C14 3.1663 14.386 2.73279 14.8834 2.67354L15 2.66664H21ZM10.6129 6.98429L10.7071 7.06961L15.7071 12.1978C16.0676 12.5675 16.0953 13.1493 15.7903 13.5517L15.7071 13.6483L10.7071 18.7765C10.3166 19.177 9.68342 19.177 9.29289 18.7765C8.93241 18.4068 8.90468 17.825 9.2097 17.4226L9.29289 17.326L12.585 13.9487H3C2.44772 13.9487 2 13.4895 2 12.9231C2 12.3971 2.38604 11.9636 2.88338 11.9043L3 11.8974H12.585L9.29289 8.52008C8.93241 8.15036 8.90468 7.56858 9.2097 7.16623L9.29289 7.06961C9.62334 6.73069 10.1275 6.67855 10.5114 6.91319L10.6129 6.98429Z" fill="#7D8592"/>
</g>
</g>
</svg>
