<svg width="24" height="26" viewBox="0 0 24 26" fill="none" xmlns="http://www.w3.org/2000/svg">
<g id="icn/sidebar/messenger/active">
<g id="icn/sidebar/messenger/inactive">
<path id="Shape" fill-rule="evenodd" clip-rule="evenodd" d="M22.1131 18.3504C23.2813 16.1676 23.2963 13.5492 22.153 11.3533C21.0098 9.15742 18.8557 7.66706 16.3968 7.37067C15.313 4.8362 12.925 3.1006 10.1786 2.85126C7.43221 2.60192 4.77042 3.87907 3.24746 6.17688C1.72449 8.47469 1.58606 11.4225 2.88697 13.8528L2.30716 15.8814C2.17615 16.3394 2.30391 16.8325 2.64093 17.1694C2.97795 17.5063 3.47124 17.6341 3.92957 17.5032L5.95948 16.9236C6.7809 17.363 7.67719 17.6453 8.60228 17.756C9.42916 19.6892 11.03 21.1868 13.0148 21.8837C14.9995 22.5806 17.1857 22.4127 19.0407 21.4211L21.0705 22.0008C21.5288 22.1316 22.0221 22.0039 22.3591 21.667C22.6961 21.3301 22.824 20.8371 22.693 20.3791L22.1131 18.3504ZM20.6612 17.8717C20.5556 18.0492 20.5279 18.2623 20.5847 18.4608L21.1581 20.4666L19.1512 19.8936C18.9526 19.8369 18.7394 19.8646 18.5619 19.9701C17.1753 20.7914 15.5165 21.0209 13.9588 20.607C12.4012 20.1931 11.0754 19.1705 10.28 17.7694C12.3569 17.5546 14.2498 16.4832 15.5024 14.8136C16.7549 13.144 17.2534 11.0276 16.8777 8.97489C18.7362 9.41364 20.2748 10.7101 21.0218 12.4665C21.7687 14.223 21.6348 16.2299 20.6612 17.8717Z" fill="#7D8592"/>
</g>
</g>
</svg>
