<svg width="24" height="25" viewBox="0 0 24 25" fill="none" xmlns="http://www.w3.org/2000/svg">
<g id="icn/sidebar/infoportal/inactive">
<g id="icn/sidebar/infoportal/inactive_2">
<path id="Shape" fill-rule="evenodd" clip-rule="evenodd" d="M22.7133 10.3755C22.427 9.96841 21.9681 9.72706 21.4793 9.72643H20.2529L20.2386 8.57572C20.2249 7.48097 19.3336 6.60067 18.2387 6.60067H12.4819C12.2606 6.60067 12.0456 6.52728 11.8705 6.39199L9.64651 4.6737C9.29631 4.40313 8.86626 4.25635 8.42371 4.25635H4C2.89543 4.25635 2 5.15178 2 6.25635L2 18.6666C2 19.7712 2.89543 20.6666 4 20.6666H18.5854C19.452 20.6666 20.2201 20.1084 20.4877 19.2841L22.9223 11.7835C23.0763 11.3069 22.9986 10.7833 22.7133 10.3755ZM8.2507 5.81923C8.47154 5.81923 8.68617 5.89233 8.86109 6.02713L11.2278 7.85096C11.4915 8.05322 11.8115 8.16284 12.1405 8.16355H17.7319C18.2841 8.16355 18.7318 8.61127 18.7318 9.16355V9.72643H6.35086C5.69595 9.72583 5.11437 10.1565 4.90782 10.7951L3.52108 15.0697V6.81923C3.52108 6.26695 3.96879 5.81923 4.52108 5.81923H8.2507Z" fill="#7D8592"/>
</g>
</g>
</svg>
