<svg width="24" height="25" viewBox="0 0 24 25" fill="none" xmlns="http://www.w3.org/2000/svg">
<g id="icn/sidebar/projects/inactive">
<g id="icn/sidebar/projects/inactive_2">
<path id="projects" fill-rule="evenodd" clip-rule="evenodd" d="M13.0616 2.94662C12.4123 2.54009 11.5879 2.54009 10.9387 2.94662L4.7584 6.81655C3.49455 7.60793 3.51004 9.45425 4.78699 10.2243L10.9902 13.9652C11.6269 14.3492 12.424 14.3483 13.0597 13.9629L19.2241 10.2264C20.4976 9.45442 20.511 7.61125 19.2489 6.82092L13.0616 2.94662ZM19.6032 11.9957C20.0834 11.7159 20.6938 11.8882 20.9667 12.3807C21.2201 12.838 21.0933 13.4105 20.6894 13.7141L20.5913 13.7792L13.9968 17.6227C13.167 18.1106 12.1543 18.1442 11.2965 17.7215L11.1152 17.6239L4.59837 13.7763C4.11972 13.4937 3.95507 12.8667 4.2306 12.3758C4.48645 11.9199 5.03188 11.7417 5.49173 11.9449L5.59616 11.9986L12.1096 15.8441C12.3498 15.9847 12.6429 16.002 12.8984 15.8948L13.0053 15.8412L19.6032 11.9957ZM19.5062 15.7494C19.9864 15.4696 20.5969 15.6419 20.8697 16.1344C21.1231 16.5917 20.9963 17.1642 20.5924 17.4678L20.4944 17.5329L13.8998 21.3764C13.0701 21.8643 12.0574 21.8979 11.1995 21.4752L11.0182 21.3776L4.50141 17.53C4.02277 17.2474 3.85811 16.6204 4.13364 16.1295C4.38949 15.6736 4.93493 15.4954 5.39477 15.6986L5.4992 15.7523L12.0126 19.5978C12.2529 19.7384 12.546 19.7557 12.8014 19.6485L12.9083 19.5949L19.5062 15.7494Z" fill="#7D8592"/>
</g>
</g>
</svg>
