<svg width="24" height="25" viewBox="0 0 24 25" fill="none" xmlns="http://www.w3.org/2000/svg">
<g id="icn/general/support/white">
<g id="icn/general/support/white_2">
<path id="support" fill-rule="evenodd" clip-rule="evenodd" d="M13.1169 2.28207H12.6169C11.1421 2.27822 9.68472 2.63226 8.36607 3.31539C5.15179 4.96302 3.11832 8.3355 3.11693 12.0254L3.12322 12.4031C3.16381 13.535 3.39941 14.6507 3.81816 15.6981L3.92393 15.9488L3.2286 17.6699C2.91564 18.4444 2.92435 19.3163 3.25269 20.084L3.32817 20.2475C4.04434 21.689 5.74201 22.324 7.20512 21.6658L8.80293 20.9458L9.03643 21.0501C10.1711 21.5273 11.3884 21.7726 12.6195 21.7693C16.2149 21.7679 19.5031 19.6823 21.1114 16.3817C21.7756 15.0331 22.1208 13.5384 22.117 12.0231L22.117 11.5129C21.8542 6.60066 18.1382 2.70344 13.4391 2.30257L13.1169 2.28207ZM12.6144 4.33335L13.0749 4.33242L13.0618 4.3318C16.8687 4.54728 19.9084 7.66495 20.1185 11.5694L20.117 12.0258C20.12 13.2206 19.8484 14.3967 19.3243 15.4608C18.0527 18.0704 15.4568 19.7169 12.6165 19.7181C11.452 19.7212 10.3053 19.4426 9.26778 18.9051C9.0013 18.7671 8.68862 18.7584 8.41522 18.8814L6.40171 19.7873C5.89594 20.0148 5.30609 19.7787 5.08423 19.26C4.97478 19.0041 4.97188 18.7135 5.0762 18.4553L5.94073 16.3159C6.05229 16.0398 6.0409 15.7275 5.90952 15.4608C5.38547 14.3966 5.11389 13.2206 5.11692 12.0284C5.11802 9.11311 6.7234 6.45062 9.26398 5.14832C10.3053 4.60888 11.4519 4.33032 12.6144 4.33335Z" fill="white"/>
</g>
</g>
</svg>
