<svg width="44" height="44" viewBox="0 0 44 44" fill="none" xmlns="http://www.w3.org/2000/svg">
<g id="ri:meta-fill">
<path id="Vector" d="M31.02 8.25C27.6265 8.25 24.9737 10.8057 22.572 14.0525C19.272 9.8505 16.5128 8.25 13.211 8.25C6.47901 8.25 1.32001 17.0133 1.32001 26.2863C1.32001 32.0888 4.12684 35.75 8.82934 35.75C12.2137 35.75 14.6483 34.155 18.9768 26.5888C18.9768 26.5888 20.7808 23.4043 22.0202 21.2098C22.4565 21.912 22.913 22.6673 23.3952 23.4795L25.4247 26.8932C29.3773 33.5078 31.581 35.75 35.5703 35.75C40.1537 35.75 42.702 32.0393 42.702 26.1158C42.702 16.4047 37.4275 8.25 31.02 8.25ZM15.675 24.541C12.1678 30.041 10.9542 31.2748 9.00167 31.2748C6.99051 31.2748 5.79517 29.5093 5.79517 26.3615C5.79517 19.6295 9.15201 12.7453 13.1542 12.7453C15.3212 12.7453 17.1325 13.9957 19.9063 17.9667C17.2718 22.0073 15.675 24.541 15.675 24.541ZM28.919 23.8498L26.4917 19.8C25.8819 18.8041 25.2511 17.8212 24.5997 16.852C26.7868 13.4768 28.589 11.7938 30.7358 11.7938C35.1908 11.7938 38.7567 18.3572 38.7567 26.4165C38.7567 29.4892 37.7502 31.273 35.6657 31.273C33.6673 31.273 32.714 29.9548 28.919 23.8498Z" fill="#00C2FF"/>
</g>
</svg>
